PathFileType	4	(X/Y/Z)	C:\Users\italobelli\Desktop\GitHub\PTbot_officialCBL\Personal_Results\FLX01_noisy2.trc
DataRate	CameraRate	NumFrames	NumMarkers	Units	OrigDataRate	OrigDataStartFrame	OrigNumFrames
106.533333	106.533333	46	9	m	106.533333	701	800
Frame#	Time		gu		centelbow		EpL		centpxt8		centijc7		ij		ts		aa		ai
			X1	Y1	Z1	X2	Y2	Z2	X3	Y3	Z3	X4	Y4	Z4	X5	Y5	Z5	X6	Y6	Z6	X7	Y7	Z7	X8	Y8	Z8	X9	Y9	Z9

701	6.5707	-0.064497	-0.018235	0.16733	-0.11083	-0.26956	0.19466	-0.089729	-0.26784	0.21899	-0.046816	-0.15316	-0.008669	-0.046816	0.031938	-0.008669	0	0	0	-0.13465	0.024794	0.055023	-0.10058	0.018386	0.16922	-0.14546	-0.088173	0.057425
702	6.5801	-0.064534	-0.018185	0.16736	-0.11082	-0.2693	0.19474	-0.089743	-0.26758	0.21908	-0.046816	-0.15316	-0.008669	-0.046816	0.031938	-0.008669	0	0	0	-0.13466	0.024807	0.055026	-0.10063	0.018435	0.16925	-0.14544	-0.08816	0.057459
703	6.5895	-0.064575	-0.018134	0.16739	-0.11082	-0.26905	0.19482	-0.089758	-0.26731	0.21917	-0.046816	-0.15316	-0.008669	-0.046816	0.031938	-0.008669	0	0	0	-0.13467	0.024821	0.055029	-0.10069	0.018486	0.16927	-0.14543	-0.088147	0.057495
704	6.5989	-0.064618	-0.01808	0.16743	-0.11082	-0.26878	0.1949	-0.089773	-0.26704	0.21927	-0.046816	-0.15316	-0.008669	-0.046816	0.031938	-0.008669	0	0	0	-0.13468	0.024835	0.055034	-0.10075	0.018539	0.1693	-0.14542	-0.088134	0.057533
705	6.6083	-0.064664	-0.018025	0.16746	-0.11082	-0.26852	0.19498	-0.089788	-0.26676	0.21936	-0.046816	-0.15316	-0.008669	-0.046816	0.031938	-0.008669	0	0	0	-0.13468	0.024849	0.055039	-0.10081	0.018593	0.16932	-0.14541	-0.088121	0.057572
706	6.6176	-0.064713	-0.017968	0.16749	-0.11082	-0.26824	0.19506	-0.089803	-0.26648	0.21946	-0.046816	-0.15316	-0.008669	-0.046816	0.031938	-0.008669	0	0	0	-0.13469	0.024862	0.055045	-0.10088	0.018649	0.16935	-0.14541	-0.088107	0.057612
707	6.627	-0.064764	-0.01791	0.16753	-0.11082	-0.26797	0.19515	-0.089819	-0.26619	0.21955	-0.046816	-0.15316	-0.008669	-0.046816	0.031938	-0.008669	0	0	0	-0.1347	0.024876	0.055052	-0.10095	0.018707	0.16938	-0.1454	-0.088094	0.057653
708	6.6364	-0.064817	-0.017851	0.16756	-0.11082	-0.26769	0.19523	-0.089835	-0.2659	0.21965	-0.046816	-0.15316	-0.008669	-0.046816	0.031938	-0.008669	0	0	0	-0.13471	0.02489	0.055059	-0.10102	0.018765	0.16941	-0.14539	-0.088081	0.057696
709	6.6458	-0.064873	-0.01779	0.16759	-0.11082	-0.26741	0.19531	-0.089851	-0.26561	0.21975	-0.046816	-0.15316	-0.008669	-0.046816	0.031938	-0.008669	0	0	0	-0.13472	0.024904	0.055067	-0.1011	0.018825	0.16944	-0.14539	-0.088068	0.057739
710	6.6552	-0.06493	-0.017728	0.16763	-0.11082	-0.26712	0.19539	-0.089866	-0.26532	0.21984	-0.046816	-0.15316	-0.008669	-0.046816	0.031938	-0.008669	0	0	0	-0.13473	0.024917	0.055075	-0.10118	0.018886	0.16947	-0.14538	-0.088054	0.057784
711	6.6646	-0.064989	-0.017665	0.16767	-0.11082	-0.26683	0.19547	-0.089882	-0.26502	0.21994	-0.046816	-0.15316	-0.008669	-0.046816	0.031938	-0.008669	0	0	0	-0.13474	0.024931	0.055084	-0.10126	0.018948	0.1695	-0.14538	-0.088041	0.057829
712	6.674	-0.06505	-0.017601	0.1677	-0.11082	-0.26654	0.19555	-0.089898	-0.26472	0.22003	-0.046816	-0.15316	-0.008669	-0.046816	0.031938	-0.008669	0	0	0	-0.13475	0.024944	0.055093	-0.10135	0.01901	0.16953	-0.14537	-0.088028	0.057875
713	6.6834	-0.065112	-0.017536	0.16774	-0.11082	-0.26625	0.19564	-0.089913	-0.26442	0.22012	-0.046816	-0.15316	-0.008669	-0.046816	0.031938	-0.008669	0	0	0	-0.13476	0.024958	0.055103	-0.10143	0.019074	0.16957	-0.14537	-0.088015	0.057922
714	6.6927	-0.065176	-0.017471	0.16777	-0.11082	-0.26596	0.19572	-0.089928	-0.26412	0.22022	-0.046816	-0.15316	-0.008669	-0.046816	0.031938	-0.008669	0	0	0	-0.13477	0.024971	0.055113	-0.10152	0.019138	0.1696	-0.14537	-0.088002	0.05797
715	6.7021	-0.065241	-0.017404	0.16781	-0.11082	-0.26566	0.1958	-0.089943	-0.26382	0.22031	-0.046816	-0.15316	-0.008669	-0.046816	0.031938	-0.008669	0	0	0	-0.13478	0.024985	0.055123	-0.10161	0.019203	0.16963	-0.14536	-0.087989	0.058018
716	6.7115	-0.065307	-0.017338	0.16785	-0.11082	-0.26537	0.19588	-0.089958	-0.26352	0.22041	-0.046816	-0.15316	-0.008669	-0.046816	0.031938	-0.008669	0	0	0	-0.13479	0.024998	0.055134	-0.1017	0.019268	0.16967	-0.14536	-0.087977	0.058066
717	6.7209	-0.065374	-0.017271	0.16788	-0.11081	-0.26507	0.19596	-0.089972	-0.26321	0.2205	-0.046816	-0.15316	-0.008669	-0.046816	0.031938	-0.008669	0	0	0	-0.1348	0.025011	0.055145	-0.1018	0.019333	0.1697	-0.14536	-0.087964	0.058115
718	6.7303	-0.065442	-0.017204	0.16792	-0.11081	-0.26478	0.19603	-0.089985	-0.26291	0.22059	-0.046816	-0.15316	-0.008669	-0.046816	0.031938	-0.008669	0	0	0	-0.13481	0.025023	0.055156	-0.10189	0.019399	0.16973	-0.14536	-0.087952	0.058164
719	6.7397	-0.06551	-0.017136	0.16796	-0.11081	-0.26448	0.19611	-0.089999	-0.26261	0.22068	-0.046816	-0.15316	-0.008669	-0.046816	0.031938	-0.008669	0	0	0	-0.13482	0.025036	0.055167	-0.10199	0.019465	0.16977	-0.14536	-0.08794	0.058213
720	6.7491	-0.06558	-0.017069	0.16799	-0.11081	-0.26419	0.19619	-0.090011	-0.26231	0.22077	-0.046816	-0.15316	-0.008669	-0.046816	0.031938	-0.008669	0	0	0	-0.13483	0.025049	0.055179	-0.10208	0.019531	0.1698	-0.14535	-0.087928	0.058262
721	6.7584	-0.065649	-0.017001	0.16803	-0.1108	-0.2639	0.19627	-0.090023	-0.26201	0.22086	-0.046816	-0.15316	-0.008669	-0.046816	0.031938	-0.008669	0	0	0	-0.13484	0.025061	0.05519	-0.10218	0.019597	0.16984	-0.14535	-0.087916	0.058311
722	6.7678	-0.065719	-0.016934	0.16807	-0.1108	-0.26361	0.19634	-0.090034	-0.26171	0.22095	-0.046816	-0.15316	-0.008669	-0.046816	0.031938	-0.008669	0	0	0	-0.13485	0.025073	0.055202	-0.10227	0.019663	0.16987	-0.14535	-0.087904	0.05836
723	6.7772	-0.065789	-0.016866	0.1681	-0.11079	-0.26332	0.19642	-0.090044	-0.26142	0.22104	-0.046816	-0.15316	-0.008669	-0.046816	0.031938	-0.008669	0	0	0	-0.13486	0.025085	0.055213	-0.10237	0.019729	0.1699	-0.14535	-0.087893	0.058409
724	6.7866	-0.065859	-0.0168	0.16814	-0.11079	-0.26303	0.19649	-0.090054	-0.26113	0.22112	-0.046816	-0.15316	-0.008669	-0.046816	0.031938	-0.008669	0	0	0	-0.13487	0.025096	0.055224	-0.10247	0.019794	0.16994	-0.14535	-0.087882	0.058458
725	6.796	-0.065929	-0.016733	0.16818	-0.11078	-0.26275	0.19656	-0.090063	-0.26084	0.22121	-0.046816	-0.15316	-0.008669	-0.046816	0.031938	-0.008669	0	0	0	-0.13488	0.025107	0.055236	-0.10256	0.019859	0.16997	-0.14535	-0.087871	0.058506
726	6.8054	-0.065998	-0.016667	0.16821	-0.11077	-0.26247	0.19663	-0.090071	-0.26055	0.22129	-0.046816	-0.15316	-0.008669	-0.046816	0.031938	-0.008669	0	0	0	-0.13489	0.025118	0.055247	-0.10266	0.019923	0.17	-0.14535	-0.08786	0.058554
727	6.8148	-0.066067	-0.016602	0.16825	-0.11076	-0.26219	0.1967	-0.090077	-0.26027	0.22138	-0.046816	-0.15316	-0.008669	-0.046816	0.031938	-0.008669	0	0	0	-0.1349	0.025129	0.055258	-0.10275	0.019987	0.17004	-0.14535	-0.08785	0.058601
728	6.8242	-0.066136	-0.016538	0.16828	-0.11075	-0.26191	0.19677	-0.090083	-0.25999	0.22146	-0.046816	-0.15316	-0.008669	-0.046816	0.031938	-0.008669	0	0	0	-0.13491	0.02514	0.055268	-0.10285	0.02005	0.17007	-0.14534	-0.08784	0.058647
729	6.8335	-0.066203	-0.016475	0.16831	-0.11074	-0.26165	0.19684	-0.090088	-0.25971	0.22154	-0.046816	-0.15316	-0.008669	-0.046816	0.031938	-0.008669	0	0	0	-0.13492	0.02515	0.055279	-0.10294	0.020112	0.1701	-0.14534	-0.08783	0.058693
730	6.8429	-0.06627	-0.016412	0.16835	-0.11073	-0.26138	0.19691	-0.090091	-0.25944	0.22161	-0.046816	-0.15316	-0.008669	-0.046816	0.031938	-0.008669	0	0	0	-0.13492	0.02516	0.055289	-0.10303	0.020173	0.17013	-0.14534	-0.08782	0.058738
731	6.8523	-0.066336	-0.016351	0.16838	-0.11072	-0.26112	0.19697	-0.090094	-0.25918	0.22169	-0.046816	-0.15316	-0.008669	-0.046816	0.031938	-0.008669	0	0	0	-0.13493	0.025169	0.055299	-0.10312	0.020233	0.17016	-0.14534	-0.087811	0.058782
732	6.8617	-0.066401	-0.016291	0.16841	-0.11071	-0.26086	0.19704	-0.090095	-0.25892	0.22177	-0.046816	-0.15316	-0.008669	-0.046816	0.031938	-0.008669	0	0	0	-0.13494	0.025178	0.055308	-0.10321	0.020292	0.17019	-0.14533	-0.087802	0.058826
733	6.8711	-0.066464	-0.016232	0.16844	-0.11069	-0.26061	0.1971	-0.090094	-0.25866	0.22184	-0.046816	-0.15316	-0.008669	-0.046816	0.031938	-0.008669	0	0	0	-0.13494	0.025187	0.055317	-0.10329	0.02035	0.17022	-0.14533	-0.087794	0.058868
734	6.8805	-0.066527	-0.016174	0.16848	-0.11068	-0.26037	0.19716	-0.090093	-0.25841	0.22191	-0.046816	-0.15316	-0.008669	-0.046816	0.031938	-0.008669	0	0	0	-0.13495	0.025195	0.055325	-0.10338	0.020406	0.17025	-0.14532	-0.087786	0.058909
735	6.8899	-0.066587	-0.016118	0.16851	-0.11066	-0.26013	0.19722	-0.090089	-0.25817	0.22198	-0.046816	-0.15316	-0.008669	-0.046816	0.031938	-0.008669	0	0	0	-0.13495	0.025203	0.055333	-0.10346	0.020461	0.17027	-0.14532	-0.087778	0.058948
736	6.8992	-0.066646	-0.016064	0.16853	-0.11064	-0.2599	0.19727	-0.090085	-0.25794	0.22205	-0.046816	-0.15316	-0.008669	-0.046816	0.031938	-0.008669	0	0	0	-0.13496	0.025211	0.055341	-0.10354	0.020514	0.1703	-0.14531	-0.087771	0.058987
737	6.9086	-0.066703	-0.016012	0.16856	-0.11062	-0.25968	0.19733	-0.090079	-0.25771	0.22211	-0.046816	-0.15316	-0.008669	-0.046816	0.031938	-0.008669	0	0	0	-0.13496	0.025218	0.055347	-0.10361	0.020566	0.17033	-0.14531	-0.087764	0.059024
738	6.918	-0.066758	-0.015961	0.16859	-0.1106	-0.25946	0.19738	-0.090071	-0.25749	0.22218	-0.046816	-0.15316	-0.008669	-0.046816	0.031938	-0.008669	0	0	0	-0.13496	0.025224	0.055353	-0.10369	0.020615	0.17035	-0.1453	-0.087758	0.059059
739	6.9274	-0.066811	-0.015912	0.16862	-0.11058	-0.25925	0.19743	-0.090061	-0.25728	0.22224	-0.046816	-0.15316	-0.008669	-0.046816	0.031938	-0.008669	0	0	0	-0.13496	0.02523	0.055359	-0.10376	0.020663	0.17037	-0.14529	-0.087752	0.059093
740	6.9368	-0.066861	-0.015865	0.16864	-0.11055	-0.25905	0.19748	-0.09005	-0.25707	0.2223	-0.046816	-0.15316	-0.008669	-0.046816	0.031938	-0.008669	0	0	0	-0.13497	0.025236	0.055363	-0.10382	0.020709	0.1704	-0.14528	-0.087747	0.059125
741	6.9462	-0.066909	-0.015821	0.16867	-0.11053	-0.25886	0.19753	-0.090037	-0.25688	0.22235	-0.046816	-0.15316	-0.008669	-0.046816	0.031938	-0.008669	0	0	0	-0.13497	0.025241	0.055367	-0.10388	0.020753	0.17042	-0.14527	-0.087742	0.059155
742	6.9556	-0.066955	-0.015779	0.16869	-0.1105	-0.25868	0.19758	-0.090022	-0.25669	0.22241	-0.046816	-0.15316	-0.008669	-0.046816	0.031938	-0.008669	0	0	0	-0.13497	0.025246	0.05537	-0.10394	0.020795	0.17044	-0.14526	-0.087737	0.059184
743	6.965	-0.066998	-0.015739	0.16871	-0.11047	-0.2585	0.19762	-0.090005	-0.25651	0.22246	-0.046816	-0.15316	-0.008669	-0.046816	0.031938	-0.008669	0	0	0	-0.13496	0.02525	0.055372	-0.104	0.020834	0.17046	-0.14525	-0.087733	0.059211
744	6.9743	-0.067038	-0.015702	0.16873	-0.11044	-0.25834	0.19766	-0.089987	-0.25635	0.22251	-0.046816	-0.15316	-0.008669	-0.046816	0.031938	-0.008669	0	0	0	-0.13496	0.025254	0.055374	-0.10405	0.020872	0.17047	-0.14524	-0.08773	0.059235
745	6.9837	-0.067075	-0.015667	0.16875	-0.11041	-0.25818	0.1977	-0.089966	-0.25619	0.22256	-0.046816	-0.15316	-0.008669	-0.046816	0.031938	-0.008669	0	0	0	-0.13496	0.025257	0.055374	-0.10409	0.020906	0.17049	-0.14523	-0.087727	0.059257
746	6.9931	-0.067109	-0.015635	0.16877	-0.11038	-0.25804	0.19774	-0.089943	-0.25604	0.2226	-0.046816	-0.15316	-0.008669	-0.046816	0.031938	-0.008669	0	0	0	-0.13495	0.025259	0.055373	-0.10413	0.020938	0.1705	-0.14521	-0.087724	0.059278
